<mxfile host="app.diagrams.net" agent="Mozilla/5.0 (Windows NT 10.0; Win64; x64) AppleWebKit/537.36 (KHTML, like Gecko) Chrome/128.0.0.0 Safari/537.36" version="24.7.14">
  <diagram name="Page-1" id="c7488fd3-1785-93aa-aadb-54a6760d102a">
    <mxGraphModel dx="1185" dy="654" grid="1" gridSize="10" guides="1" tooltips="1" connect="1" arrows="1" fold="1" page="1" pageScale="1" pageWidth="1100" pageHeight="850" background="none" math="0" shadow="0">
      <root>
        <mxCell id="0" />
        <mxCell id="1" parent="0" />
        <mxCell id="2b4e8129b02d487f-1" value="Verificação de Selos - Jan 2025" style="swimlane;html=1;childLayout=stackLayout;horizontal=1;startSize=20;horizontalStack=0;rounded=0;shadow=0;labelBackgroundColor=none;strokeWidth=1;fontFamily=Verdana;fontSize=8;align=center;" parent="1" vertex="1">
          <mxGeometry x="180" y="70" width="860" height="670" as="geometry" />
        </mxCell>
        <mxCell id="2b4e8129b02d487f-2" value="Consumidor Final" style="swimlane;html=1;startSize=20;horizontal=0;" parent="2b4e8129b02d487f-1" vertex="1">
          <mxGeometry y="20" width="860" height="210" as="geometry" />
        </mxCell>
        <mxCell id="2b4e8129b02d487f-18" style="edgeStyle=orthogonalEdgeStyle;rounded=0;html=1;labelBackgroundColor=none;startArrow=none;startFill=0;startSize=5;endArrow=classicThin;endFill=1;endSize=5;jettySize=auto;orthogonalLoop=1;strokeWidth=1;fontFamily=Verdana;fontSize=8" parent="2b4e8129b02d487f-2" source="2b4e8129b02d487f-5" target="2b4e8129b02d487f-6" edge="1">
          <mxGeometry relative="1" as="geometry" />
        </mxCell>
        <mxCell id="2b4e8129b02d487f-5" value="" style="ellipse;whiteSpace=wrap;html=1;rounded=0;shadow=0;labelBackgroundColor=none;strokeWidth=1;fontFamily=Verdana;fontSize=8;align=center;" parent="2b4e8129b02d487f-2" vertex="1">
          <mxGeometry x="60" y="60" width="30" height="30" as="geometry" />
        </mxCell>
        <mxCell id="TjJBPhh7IqeXCysBH1En-6" value="" style="edgeStyle=orthogonalEdgeStyle;rounded=0;orthogonalLoop=1;jettySize=auto;html=1;" parent="2b4e8129b02d487f-2" source="2b4e8129b02d487f-6" target="TjJBPhh7IqeXCysBH1En-5" edge="1">
          <mxGeometry relative="1" as="geometry" />
        </mxCell>
        <mxCell id="2b4e8129b02d487f-6" value="Ler o QRCode&amp;nbsp;&lt;div&gt;do Selo&lt;/div&gt;" style="rounded=1;whiteSpace=wrap;html=1;shadow=0;labelBackgroundColor=none;strokeWidth=1;fontFamily=Verdana;fontSize=8;align=center;" parent="2b4e8129b02d487f-2" vertex="1">
          <mxGeometry x="120" y="56.49999999999997" width="70" height="37" as="geometry" />
        </mxCell>
        <mxCell id="TjJBPhh7IqeXCysBH1En-10" value="" style="edgeStyle=orthogonalEdgeStyle;rounded=0;orthogonalLoop=1;jettySize=auto;html=1;entryX=0;entryY=0.5;entryDx=0;entryDy=0;" parent="2b4e8129b02d487f-2" source="TjJBPhh7IqeXCysBH1En-5" target="TjJBPhh7IqeXCysBH1En-16" edge="1">
          <mxGeometry relative="1" as="geometry">
            <mxPoint x="300" y="144.9999999999999" as="targetPoint" />
            <Array as="points">
              <mxPoint x="280" y="75" />
              <mxPoint x="280" y="161" />
            </Array>
          </mxGeometry>
        </mxCell>
        <mxCell id="TjJBPhh7IqeXCysBH1En-5" value="" style="strokeWidth=1;html=1;shape=mxgraph.flowchart.decision;whiteSpace=wrap;rounded=1;shadow=0;labelBackgroundColor=none;fontFamily=Verdana;fontSize=8;align=center;" parent="2b4e8129b02d487f-2" vertex="1">
          <mxGeometry x="230" y="59.999999999999886" width="30" height="30" as="geometry" />
        </mxCell>
        <mxCell id="TjJBPhh7IqeXCysBH1En-7" value="Envia mensagem para Medida" style="rounded=1;whiteSpace=wrap;html=1;shadow=0;labelBackgroundColor=none;strokeWidth=1;fontFamily=Verdana;fontSize=8;align=center;" parent="2b4e8129b02d487f-2" vertex="1">
          <mxGeometry x="460" y="142.80999999999997" width="70" height="37" as="geometry" />
        </mxCell>
        <mxCell id="TjJBPhh7IqeXCysBH1En-14" value="" style="edgeStyle=orthogonalEdgeStyle;rounded=0;orthogonalLoop=1;jettySize=auto;html=1;entryX=0;entryY=0.5;entryDx=0;entryDy=0;" parent="2b4e8129b02d487f-2" source="TjJBPhh7IqeXCysBH1En-5" target="TjJBPhh7IqeXCysBH1En-18" edge="1">
          <mxGeometry relative="1" as="geometry">
            <mxPoint x="440" y="165" as="sourcePoint" />
            <mxPoint x="330" y="74.99999999999989" as="targetPoint" />
          </mxGeometry>
        </mxCell>
        <mxCell id="TjJBPhh7IqeXCysBH1En-24" value="" style="edgeStyle=orthogonalEdgeStyle;rounded=0;orthogonalLoop=1;jettySize=auto;html=1;entryX=0;entryY=0.5;entryDx=0;entryDy=0;" parent="2b4e8129b02d487f-2" source="TjJBPhh7IqeXCysBH1En-16" target="TjJBPhh7IqeXCysBH1En-7" edge="1">
          <mxGeometry relative="1" as="geometry">
            <mxPoint x="459" y="159" as="targetPoint" />
          </mxGeometry>
        </mxCell>
        <mxCell id="TjJBPhh7IqeXCysBH1En-16" value="Autenticar o Selo de Conformidade" style="rounded=1;whiteSpace=wrap;html=1;shadow=0;labelBackgroundColor=none;strokeWidth=1;fontFamily=Verdana;fontSize=8;align=center;" parent="2b4e8129b02d487f-2" vertex="1">
          <mxGeometry x="350" y="140" width="70" height="42.62" as="geometry" />
        </mxCell>
        <mxCell id="lS37dKiJ8wTq1rKE8fun-17" value="" style="edgeStyle=orthogonalEdgeStyle;rounded=0;orthogonalLoop=1;jettySize=auto;html=1;entryX=0.5;entryY=0;entryDx=0;entryDy=0;entryPerimeter=0;exitX=0.5;exitY=0;exitDx=0;exitDy=0;" edge="1" parent="2b4e8129b02d487f-2" source="TjJBPhh7IqeXCysBH1En-18" target="TjJBPhh7IqeXCysBH1En-5">
          <mxGeometry relative="1" as="geometry">
            <mxPoint x="385" y="-31.75" as="targetPoint" />
          </mxGeometry>
        </mxCell>
        <mxCell id="TjJBPhh7IqeXCysBH1En-18" value="Instalar o &lt;br&gt;Componente de Autenticação&lt;div&gt;(microapp)&lt;/div&gt;" style="rounded=1;whiteSpace=wrap;html=1;shadow=0;labelBackgroundColor=none;strokeWidth=1;fontFamily=Verdana;fontSize=8;align=center;" parent="2b4e8129b02d487f-2" vertex="1">
          <mxGeometry x="350" y="48.25" width="70" height="53.5" as="geometry" />
        </mxCell>
        <mxCell id="lS37dKiJ8wTq1rKE8fun-57" value="" style="edgeStyle=orthogonalEdgeStyle;rounded=0;orthogonalLoop=1;jettySize=auto;html=1;" edge="1" parent="2b4e8129b02d487f-2" source="lS37dKiJ8wTq1rKE8fun-48" target="lS37dKiJ8wTq1rKE8fun-56">
          <mxGeometry relative="1" as="geometry" />
        </mxCell>
        <mxCell id="lS37dKiJ8wTq1rKE8fun-48" value="" style="strokeWidth=1;html=1;shape=mxgraph.flowchart.decision;whiteSpace=wrap;rounded=1;shadow=0;labelBackgroundColor=none;fontFamily=Verdana;fontSize=8;align=center;" vertex="1" parent="2b4e8129b02d487f-2">
          <mxGeometry x="570" y="146.3099999999999" width="30" height="30" as="geometry" />
        </mxCell>
        <mxCell id="lS37dKiJ8wTq1rKE8fun-47" value="" style="edgeStyle=orthogonalEdgeStyle;rounded=0;orthogonalLoop=1;jettySize=auto;html=1;entryX=1;entryY=0.5;entryDx=0;entryDy=0;exitX=0;exitY=0.5;exitDx=0;exitDy=0;exitPerimeter=0;" edge="1" parent="2b4e8129b02d487f-2" source="lS37dKiJ8wTq1rKE8fun-48" target="TjJBPhh7IqeXCysBH1En-7">
          <mxGeometry relative="1" as="geometry">
            <mxPoint x="610" y="608.5" as="targetPoint" />
            <Array as="points" />
          </mxGeometry>
        </mxCell>
        <mxCell id="lS37dKiJ8wTq1rKE8fun-59" value="" style="edgeStyle=orthogonalEdgeStyle;rounded=0;orthogonalLoop=1;jettySize=auto;html=1;" edge="1" parent="2b4e8129b02d487f-2" source="lS37dKiJ8wTq1rKE8fun-56" target="lS37dKiJ8wTq1rKE8fun-58">
          <mxGeometry relative="1" as="geometry" />
        </mxCell>
        <mxCell id="lS37dKiJ8wTq1rKE8fun-56" value="Responder Pesquisa" style="rounded=1;whiteSpace=wrap;html=1;shadow=0;labelBackgroundColor=none;strokeWidth=1;fontFamily=Verdana;fontSize=8;align=center;" vertex="1" parent="2b4e8129b02d487f-2">
          <mxGeometry x="640" y="142.80999999999997" width="70" height="37" as="geometry" />
        </mxCell>
        <mxCell id="lS37dKiJ8wTq1rKE8fun-58" value="" style="ellipse;whiteSpace=wrap;html=1;rounded=0;shadow=0;labelBackgroundColor=none;strokeWidth=1;fontFamily=Verdana;fontSize=8;align=center;" vertex="1" parent="2b4e8129b02d487f-2">
          <mxGeometry x="760" y="146.31" width="30" height="30" as="geometry" />
        </mxCell>
        <mxCell id="2b4e8129b02d487f-3" value="Fab. e Import." style="swimlane;html=1;startSize=20;horizontal=0;" parent="2b4e8129b02d487f-1" vertex="1">
          <mxGeometry y="230" width="860" height="120" as="geometry">
            <mxRectangle y="290" width="860" height="30" as="alternateBounds" />
          </mxGeometry>
        </mxCell>
        <mxCell id="lS37dKiJ8wTq1rKE8fun-3" value="Registrar movimento dos Produtos" style="rounded=1;whiteSpace=wrap;html=1;shadow=0;labelBackgroundColor=none;strokeWidth=1;fontFamily=Verdana;fontSize=8;align=center;" vertex="1" parent="2b4e8129b02d487f-3">
          <mxGeometry x="130" y="41.5" width="70" height="37" as="geometry" />
        </mxCell>
        <mxCell id="lS37dKiJ8wTq1rKE8fun-5" value="" style="edgeStyle=orthogonalEdgeStyle;rounded=0;orthogonalLoop=1;jettySize=auto;html=1;" edge="1" parent="2b4e8129b02d487f-3" source="lS37dKiJ8wTq1rKE8fun-4" target="lS37dKiJ8wTq1rKE8fun-3">
          <mxGeometry relative="1" as="geometry" />
        </mxCell>
        <mxCell id="lS37dKiJ8wTq1rKE8fun-4" value="" style="ellipse;whiteSpace=wrap;html=1;rounded=0;shadow=0;labelBackgroundColor=none;strokeWidth=1;fontFamily=Verdana;fontSize=8;align=center;" vertex="1" parent="2b4e8129b02d487f-3">
          <mxGeometry x="60" y="45" width="30" height="30" as="geometry" />
        </mxCell>
        <mxCell id="lS37dKiJ8wTq1rKE8fun-10" value="" style="edgeStyle=orthogonalEdgeStyle;rounded=0;orthogonalLoop=1;jettySize=auto;html=1;" edge="1" parent="2b4e8129b02d487f-1" source="lS37dKiJ8wTq1rKE8fun-6" target="lS37dKiJ8wTq1rKE8fun-9">
          <mxGeometry relative="1" as="geometry" />
        </mxCell>
        <mxCell id="lS37dKiJ8wTq1rKE8fun-45" value="" style="edgeStyle=orthogonalEdgeStyle;rounded=0;orthogonalLoop=1;jettySize=auto;html=1;" edge="1" parent="2b4e8129b02d487f-1" source="TjJBPhh7IqeXCysBH1En-7" target="lS37dKiJ8wTq1rKE8fun-42">
          <mxGeometry relative="1" as="geometry">
            <mxPoint x="495" y="279.81000000000006" as="targetPoint" />
          </mxGeometry>
        </mxCell>
        <mxCell id="2b4e8129b02d487f-4" value="INMETRO" style="swimlane;html=1;startSize=20;horizontal=0;" parent="2b4e8129b02d487f-1" vertex="1">
          <mxGeometry y="350" width="860" height="120" as="geometry">
            <mxRectangle y="440" width="860" height="30" as="alternateBounds" />
          </mxGeometry>
        </mxCell>
        <mxCell id="lS37dKiJ8wTq1rKE8fun-6" value="Disponibilizar Informações do Registro (URL)" style="rounded=1;whiteSpace=wrap;html=1;shadow=0;labelBackgroundColor=none;strokeWidth=1;fontFamily=Verdana;fontSize=8;align=center;" vertex="1" parent="2b4e8129b02d487f-4">
          <mxGeometry x="130" y="40" width="70" height="37" as="geometry" />
        </mxCell>
        <mxCell id="lS37dKiJ8wTq1rKE8fun-7" value="" style="edgeStyle=orthogonalEdgeStyle;rounded=0;orthogonalLoop=1;jettySize=auto;html=1;" edge="1" parent="2b4e8129b02d487f-4" source="lS37dKiJ8wTq1rKE8fun-8" target="lS37dKiJ8wTq1rKE8fun-6">
          <mxGeometry relative="1" as="geometry" />
        </mxCell>
        <mxCell id="lS37dKiJ8wTq1rKE8fun-8" value="" style="ellipse;whiteSpace=wrap;html=1;rounded=0;shadow=0;labelBackgroundColor=none;strokeWidth=1;fontFamily=Verdana;fontSize=8;align=center;" vertex="1" parent="2b4e8129b02d487f-4">
          <mxGeometry x="60" y="43.5" width="30" height="30" as="geometry" />
        </mxCell>
        <mxCell id="lS37dKiJ8wTq1rKE8fun-51" value="Atualizar Informações do Registro (Vigilância de Mercado)" style="rounded=1;whiteSpace=wrap;html=1;shadow=0;labelBackgroundColor=none;strokeWidth=1;fontFamily=Verdana;fontSize=8;align=center;" vertex="1" parent="2b4e8129b02d487f-4">
          <mxGeometry x="350" y="23.5" width="70" height="70" as="geometry" />
        </mxCell>
        <mxCell id="lS37dKiJ8wTq1rKE8fun-52" value="" style="edgeStyle=orthogonalEdgeStyle;rounded=0;orthogonalLoop=1;jettySize=auto;html=1;" edge="1" parent="2b4e8129b02d487f-4" source="lS37dKiJ8wTq1rKE8fun-53" target="lS37dKiJ8wTq1rKE8fun-51">
          <mxGeometry relative="1" as="geometry" />
        </mxCell>
        <mxCell id="lS37dKiJ8wTq1rKE8fun-53" value="" style="ellipse;whiteSpace=wrap;html=1;rounded=0;shadow=0;labelBackgroundColor=none;strokeWidth=1;fontFamily=Verdana;fontSize=8;align=center;" vertex="1" parent="2b4e8129b02d487f-4">
          <mxGeometry x="260" y="43.5" width="30" height="30" as="geometry" />
        </mxCell>
        <mxCell id="lS37dKiJ8wTq1rKE8fun-2" value="Pharos" style="swimlane;html=1;startSize=20;horizontal=0;" vertex="1" parent="2b4e8129b02d487f-1">
          <mxGeometry y="470" width="860" height="200" as="geometry">
            <mxRectangle y="590" width="860" height="30" as="alternateBounds" />
          </mxGeometry>
        </mxCell>
        <mxCell id="lS37dKiJ8wTq1rKE8fun-12" value="" style="edgeStyle=orthogonalEdgeStyle;rounded=0;orthogonalLoop=1;jettySize=auto;html=1;" edge="1" parent="lS37dKiJ8wTq1rKE8fun-2" source="lS37dKiJ8wTq1rKE8fun-9" target="lS37dKiJ8wTq1rKE8fun-11">
          <mxGeometry relative="1" as="geometry" />
        </mxCell>
        <mxCell id="lS37dKiJ8wTq1rKE8fun-9" value="Consultar Informações do Registro" style="rounded=1;whiteSpace=wrap;html=1;shadow=0;labelBackgroundColor=none;strokeWidth=1;fontFamily=Verdana;fontSize=8;align=center;" vertex="1" parent="lS37dKiJ8wTq1rKE8fun-2">
          <mxGeometry x="130" y="40" width="70" height="37" as="geometry" />
        </mxCell>
        <mxCell id="lS37dKiJ8wTq1rKE8fun-15" value="" style="edgeStyle=orthogonalEdgeStyle;rounded=0;orthogonalLoop=1;jettySize=auto;html=1;" edge="1" parent="lS37dKiJ8wTq1rKE8fun-2" source="lS37dKiJ8wTq1rKE8fun-11" target="lS37dKiJ8wTq1rKE8fun-14">
          <mxGeometry relative="1" as="geometry" />
        </mxCell>
        <mxCell id="lS37dKiJ8wTq1rKE8fun-11" value="Atualizar Informações do Registro" style="rounded=1;whiteSpace=wrap;html=1;shadow=0;labelBackgroundColor=none;strokeWidth=1;fontFamily=Verdana;fontSize=8;align=center;fontStyle=0" vertex="1" parent="lS37dKiJ8wTq1rKE8fun-2">
          <mxGeometry x="240" y="40" width="70" height="37" as="geometry" />
        </mxCell>
        <mxCell id="lS37dKiJ8wTq1rKE8fun-27" value="" style="rounded=0;orthogonalLoop=1;jettySize=auto;html=1;verticalAlign=middle;horizontal=1;startArrow=none;startFill=0;" edge="1" parent="lS37dKiJ8wTq1rKE8fun-2" source="lS37dKiJ8wTq1rKE8fun-14" target="lS37dKiJ8wTq1rKE8fun-25">
          <mxGeometry relative="1" as="geometry" />
        </mxCell>
        <mxCell id="lS37dKiJ8wTq1rKE8fun-14" value="Disponibilizar Informações do Registro Atualizadas" style="rounded=1;whiteSpace=wrap;html=1;shadow=0;labelBackgroundColor=none;strokeWidth=1;fontFamily=Verdana;fontSize=8;align=center;fontStyle=0" vertex="1" parent="lS37dKiJ8wTq1rKE8fun-2">
          <mxGeometry x="350" y="40" width="70" height="37" as="geometry" />
        </mxCell>
        <mxCell id="lS37dKiJ8wTq1rKE8fun-19" value="" style="edgeStyle=orthogonalEdgeStyle;rounded=0;orthogonalLoop=1;jettySize=auto;html=1;entryX=0;entryY=0.5;entryDx=0;entryDy=0;" edge="1" parent="lS37dKiJ8wTq1rKE8fun-2" source="lS37dKiJ8wTq1rKE8fun-20" target="lS37dKiJ8wTq1rKE8fun-9">
          <mxGeometry relative="1" as="geometry">
            <mxPoint x="130" y="59" as="targetPoint" />
          </mxGeometry>
        </mxCell>
        <mxCell id="lS37dKiJ8wTq1rKE8fun-20" value="" style="ellipse;whiteSpace=wrap;html=1;rounded=0;shadow=0;labelBackgroundColor=none;strokeWidth=1;fontFamily=Verdana;fontSize=8;align=center;" vertex="1" parent="lS37dKiJ8wTq1rKE8fun-2">
          <mxGeometry x="60" y="43.5" width="30" height="30" as="geometry" />
        </mxCell>
        <mxCell id="lS37dKiJ8wTq1rKE8fun-21" value="" style="edgeStyle=orthogonalEdgeStyle;rounded=0;orthogonalLoop=1;jettySize=auto;html=1;entryX=0;entryY=0.5;entryDx=0;entryDy=0;" edge="1" parent="lS37dKiJ8wTq1rKE8fun-2" source="lS37dKiJ8wTq1rKE8fun-22">
          <mxGeometry relative="1" as="geometry">
            <mxPoint x="130" y="135" as="targetPoint" />
          </mxGeometry>
        </mxCell>
        <mxCell id="lS37dKiJ8wTq1rKE8fun-22" value="" style="ellipse;whiteSpace=wrap;html=1;rounded=0;shadow=0;labelBackgroundColor=none;strokeWidth=1;fontFamily=Verdana;fontSize=8;align=center;" vertex="1" parent="lS37dKiJ8wTq1rKE8fun-2">
          <mxGeometry x="60" y="120" width="30" height="30" as="geometry" />
        </mxCell>
        <mxCell id="lS37dKiJ8wTq1rKE8fun-26" value="" style="edgeStyle=orthogonalEdgeStyle;rounded=0;orthogonalLoop=1;jettySize=auto;html=1;" edge="1" parent="lS37dKiJ8wTq1rKE8fun-2" source="lS37dKiJ8wTq1rKE8fun-24" target="lS37dKiJ8wTq1rKE8fun-25">
          <mxGeometry relative="1" as="geometry" />
        </mxCell>
        <mxCell id="lS37dKiJ8wTq1rKE8fun-24" value="Configurar Chatbot" style="rounded=1;whiteSpace=wrap;html=1;shadow=0;labelBackgroundColor=none;strokeWidth=1;fontFamily=Verdana;fontSize=8;align=center;fontStyle=0" vertex="1" parent="lS37dKiJ8wTq1rKE8fun-2">
          <mxGeometry x="130" y="120" width="70" height="37" as="geometry" />
        </mxCell>
        <mxCell id="lS37dKiJ8wTq1rKE8fun-43" value="" style="edgeStyle=orthogonalEdgeStyle;rounded=0;orthogonalLoop=1;jettySize=auto;html=1;" edge="1" parent="lS37dKiJ8wTq1rKE8fun-2" source="lS37dKiJ8wTq1rKE8fun-25" target="lS37dKiJ8wTq1rKE8fun-42">
          <mxGeometry relative="1" as="geometry" />
        </mxCell>
        <mxCell id="lS37dKiJ8wTq1rKE8fun-25" value="Conectar Chatbot as Informações de Registro" style="rounded=1;whiteSpace=wrap;html=1;shadow=0;labelBackgroundColor=none;strokeWidth=1;fontFamily=Verdana;fontSize=8;align=center;fontStyle=0" vertex="1" parent="lS37dKiJ8wTq1rKE8fun-2">
          <mxGeometry x="350" y="110.25" width="70" height="56.5" as="geometry" />
        </mxCell>
        <mxCell id="lS37dKiJ8wTq1rKE8fun-62" value="" style="edgeStyle=orthogonalEdgeStyle;rounded=0;orthogonalLoop=1;jettySize=auto;html=1;entryX=0;entryY=0.5;entryDx=0;entryDy=0;" edge="1" parent="lS37dKiJ8wTq1rKE8fun-2" source="lS37dKiJ8wTq1rKE8fun-42" target="lS37dKiJ8wTq1rKE8fun-60">
          <mxGeometry relative="1" as="geometry">
            <mxPoint x="495" y="246.75" as="targetPoint" />
          </mxGeometry>
        </mxCell>
        <mxCell id="lS37dKiJ8wTq1rKE8fun-42" value="Responder Mensagem" style="rounded=1;whiteSpace=wrap;html=1;shadow=0;labelBackgroundColor=none;strokeWidth=1;fontFamily=Verdana;fontSize=8;align=center;fontStyle=0" vertex="1" parent="lS37dKiJ8wTq1rKE8fun-2">
          <mxGeometry x="460" y="110.25" width="70" height="56.5" as="geometry" />
        </mxCell>
        <mxCell id="lS37dKiJ8wTq1rKE8fun-64" value="" style="edgeStyle=orthogonalEdgeStyle;rounded=0;orthogonalLoop=1;jettySize=auto;html=1;" edge="1" parent="lS37dKiJ8wTq1rKE8fun-2" source="lS37dKiJ8wTq1rKE8fun-60" target="lS37dKiJ8wTq1rKE8fun-63">
          <mxGeometry relative="1" as="geometry" />
        </mxCell>
        <mxCell id="lS37dKiJ8wTq1rKE8fun-60" value="Processar e Disponibilizar Informações sobre as Verificações" style="rounded=1;whiteSpace=wrap;html=1;shadow=0;labelBackgroundColor=none;strokeWidth=1;fontFamily=Verdana;fontSize=8;align=center;fontStyle=0" vertex="1" parent="lS37dKiJ8wTq1rKE8fun-2">
          <mxGeometry x="640" y="110.25" width="70" height="56.5" as="geometry" />
        </mxCell>
        <mxCell id="lS37dKiJ8wTq1rKE8fun-63" value="" style="ellipse;whiteSpace=wrap;html=1;rounded=0;shadow=0;labelBackgroundColor=none;strokeWidth=1;fontFamily=Verdana;fontSize=8;align=center;" vertex="1" parent="lS37dKiJ8wTq1rKE8fun-2">
          <mxGeometry x="760" y="123.5" width="30" height="30" as="geometry" />
        </mxCell>
        <mxCell id="lS37dKiJ8wTq1rKE8fun-54" value="" style="edgeStyle=orthogonalEdgeStyle;rounded=0;orthogonalLoop=1;jettySize=auto;html=1;entryX=0.5;entryY=0;entryDx=0;entryDy=0;exitX=0.5;exitY=1;exitDx=0;exitDy=0;" edge="1" parent="2b4e8129b02d487f-1" source="lS37dKiJ8wTq1rKE8fun-51" target="lS37dKiJ8wTq1rKE8fun-9">
          <mxGeometry relative="1" as="geometry">
            <Array as="points">
              <mxPoint x="385" y="490" />
              <mxPoint x="165" y="490" />
            </Array>
          </mxGeometry>
        </mxCell>
        <mxCell id="lS37dKiJ8wTq1rKE8fun-50" value="" style="edgeStyle=orthogonalEdgeStyle;rounded=0;orthogonalLoop=1;jettySize=auto;html=1;" edge="1" parent="2b4e8129b02d487f-1" source="lS37dKiJ8wTq1rKE8fun-42" target="lS37dKiJ8wTq1rKE8fun-48">
          <mxGeometry relative="1" as="geometry" />
        </mxCell>
        <mxCell id="lS37dKiJ8wTq1rKE8fun-66" value="" style="edgeStyle=orthogonalEdgeStyle;rounded=0;orthogonalLoop=1;jettySize=auto;html=1;entryX=0.5;entryY=0;entryDx=0;entryDy=0;" edge="1" parent="2b4e8129b02d487f-1" source="lS37dKiJ8wTq1rKE8fun-56" target="lS37dKiJ8wTq1rKE8fun-60">
          <mxGeometry relative="1" as="geometry">
            <mxPoint x="675" y="279.81000000000006" as="targetPoint" />
          </mxGeometry>
        </mxCell>
      </root>
    </mxGraphModel>
  </diagram>
</mxfile>
